<svg id="Layer_14" data-name="Layer 14" xmlns="http://www.w3.org/2000/svg" viewBox="0 0 372.67 307.34"><defs><style>.cls-1{fill:#1c75bc;}.cls-2{fill:#262262;}.cls-3{fill:#2b3990;}.cls-4{fill:#bcbec0;}.cls-5{fill:#fbb040;}.cls-6{fill:#f7941d;}.cls-7{fill:#231f20;}.cls-8{fill:#c49a6c;}.cls-9{fill:#754c29;}</style></defs><path class="cls-1" d="M255.21,652.36c3.54.24,4.32,0,4.36-.18s-.06-.35-1.51-1.07c-2.28-1.14-1.82-1.26-2.51-3.65s.69-5,1.14-8.44.91-14.49,1.6-16.89,4.56-11.63,6.39-16.54,2.73-9.12,1.94-9.46-3.88-3.31-6.39-4.91-6.16-4.45-6.16-4.45a32.54,32.54,0,0,1-1.94,4.68c-.91,1.83-4.79,14-6.85,18.37s-3.65,8.55-6.27,12.66a79.74,79.74,0,0,1-11.36,13.8,16.2,16.2,0,0,1-7.35,4.28c-1.33.33-3.07.73-4.1-.17-1.34-1.18.1-3.13-.92-5.94-1.34-3.72-5.58-5.14-6.16-5.24-4.56-.8-4.22-.23-6.38,1.14s-2.4,5.93-1.81,8.67a4.45,4.45,0,0,0,.71,1.67c1.2,1.66,2.88,1.29,4.18,3a3.1,3.1,0,0,1,.76,2.1c-.12,1-1,1.6-2.12,2.53-2,1.64-3.72,3.13-3.51,4s3,.9,14.22.7a6.49,6.49,0,0,0,2.41-.47c1.78-.75,2.49-2.09,3.52-3.41.5-.64,3.75-4.73,8.33-5.74.36-.08,1.49-.13,3.76-.23a39,39,0,0,1,6.81,0,17.19,17.19,0,0,1,5.85,2Z" transform="translate(-129.57 -388.35)"/><path class="cls-2" d="M231,656.53l9.52-1a8.58,8.58,0,0,1,3.5,2.36,22.93,22.93,0,0,1,4,6.31c.68,1.6,4.1,2.2,6.61,2.28s19.62-.46,20.38,0,.15,3.65,2.74,6.39,8.9,5.93,9.81,6.84,10,7.45,12.93,10.42,3,4.49,4,5.25,3.42.23,6.69-2.28,7.76-4.57,10-6.24,20.3-15.89,22.74-17.72,1.67-2.28,4-2.51a155.9,155.9,0,0,1,16-.86l20.91.33s1.6-3,2.74-5.1,1.75-3.19,4.86-4.18,4.72-1.9,7.08-1.29a13.53,13.53,0,0,1,3.7,2.77,20,20,0,0,1,3.37,5.71c.57,2,4,2.22,7.24,2.22s18.2.06,18.2.06l31.71-.17a33.18,33.18,0,0,0-4.39-4.39c-3.26-2.85-8.67-8.39-10.73-10.1a15.37,15.37,0,0,1-4.39-5.76c-1.08-2.34-.4-9.87-.46-11.52s-2.11-9.52-2.73-10.21-2.4-3.82-3.82-4.85-7.3-2.85-7.88-2.85-4.44.06-6.15,0-3.43-.17-5.08,1.09-8.38,4.33-8.73,4.56-2.05-1.49-3.93-4.51-5-9.81-5.53-10.78-1.77-5.81-2.34-7-2.8-9-3.54-10.66-.85-2.62-1.37-3.25-.74-1.09-1.94,0l-3.82,1.62a64.78,64.78,0,0,1,2.85,6.13c1.12,2.78,1.3,4.43,2.57,7.48.28.68,3.08,8.38,3.59,9.75s4.51,10,4.91,10.72,3,4.79,3.82,6,3.19,3.08,4.28,3.08,1.37.17,2.73-1.94,1.66-3.71,3.77-4.79a11.35,11.35,0,0,1,5.07-1.65,76,76,0,0,1,11.18,1.76,8.87,8.87,0,0,1,3.65,3.08c.92,1.49,2.91,4.4,3,5.71s.28,5.19.34,6.61-1,2.51-1.14,3.37-1.2,3,.06,4.39,3.93,4.45,5.25,5.59a58,58,0,0,1,4.67,3.93c.08,0,1,.51,1,1.22a1,1,0,0,1-.14.48,2.49,2.49,0,0,1-1.09,1.07,7.73,7.73,0,0,1-3.84.83,200.07,200.07,0,0,0-20.82-.4c-1.76,0-9.75.23-10.83,0a3.34,3.34,0,0,1-1.18-.38,6.31,6.31,0,0,1-1.41-1.38l-.63-.71c-1.93-2.27-2.75-4.2-4.88-5.46a9.17,9.17,0,0,0-1.66-.73,12.46,12.46,0,0,0-4.16-.69c-5.66-.13-8.5-.17-9.41.57-.29.24-.06.11-2.81,3.28-.29.33-.81.93-1.46,1.77s-.73,1-1,1.39a8,8,0,0,1-2.85,2.3,9.05,9.05,0,0,1-4.11.52c-.79,0-.91-.06-2.48-.13-1.3,0-2.23-.06-2.77-.06-3.24,0-8.87-.18-12-.29-1.47-.05-3.61-.14-6.22-.29a13.85,13.85,0,0,1,2-2.16s3.53-4.11,4.22-5.14,2.74-4.05,3.48-5,3.29-5.08,3.67-6.92,1-6.18,1.06-7.17c.32-4.16-.38-7.2-1.14-11.4-1.83-10.18-3.5-9.82-4.36-14.35-.09-.43-.3-1.63-1.18-2.06a2.8,2.8,0,0,0-2.4.37,21.45,21.45,0,0,0-.2,8.81c.53,2.69,1.17,3.07,2.63,8,1,3.42,1.55,5.27,1.6,7.82a19.49,19.49,0,0,1-1.11,6.89c-1.21,3.3-2.9,4.61-7.45,9.28-5.9,6.06-4.71,5.56-10.19,11-2.17,2.16-4.82,4.79-8.55,8-6.77,5.82-8.22,5.9-13.05,10.38,0,0-3.68,3.42-6.62,5.57l-2.39,1.73c-1.55,1.12-1.84,1.35-2.46,1.73-2.26,1.38-3.12,1.3-3.46,1.25a3,3,0,0,1-1.32-.6,15.46,15.46,0,0,1-4.43-5.1c-.48-1-5.68-5.46-16-14.42-2-1.7-3.57-3.07-5.48-5-1.12-1.13-2-2.1-3.68-3.76-.24-.25-.9-.9-1.74-1.79s-1.22-1.34-1.48-1.64c-.54-.62-.92-1.09-1.12-1.33s-1.62-2-2.73-3.26a37.05,37.05,0,0,0-4.92-4.95c-.18-.14-.8-.61-1.62-1.3a15.6,15.6,0,0,1-1.56-1.4c-1.38-1.59-.93-3.12-1.73-3.44s-2.07.81-2.76,1.7c-2.92,3.75-.41,9.69.76,10.72.52.46.48.33,2.58,1.28,5.27,2.39,7.45,4.91,8.31,6.06s1.68,2.09,1.14,2.45c-.34.23-6.21.23-9.81.11s-8-1.54-9.29-3.3-2.91-4.05-4.39-4.8-4.85-2.16-6.45-2-10.21,1.65-10.95,2.79a71.26,71.26,0,0,1-4.79,6c-.46.34-7.3.85-8.38.8s-13.07-.23-13.81-.17-6.5.17-10.38,0-6.27,0-6.84-.17.45-.63,2.45-2.45,3.48-3.94,5-4.79,5.59-6.39,5.48-7,.51-1-.92-3.42c0,0-1.31-3.77-1.54-4.74s.92-6.44.92-7,1.48-2.85,2.16-3.94a15,15,0,0,1,4.28-3.48,51.87,51.87,0,0,1,9.58-.91c1.71.23,4.39-.34,5.76,1.26s3.65,4.33,4.74,5.42,2.05,1.93,2.79,1,2.8-3.59,3.82-5.19,6.9-8.95,7.47-9.69,3.94-9.13,4.45-10.15c1.81-3.61.83-3.56,2.17-7.3,1.94-5.42,2.91-8.13,3.85-9.71s2.33-3.59,1.58-5a4.47,4.47,0,0,0-1.25-1.47,5.71,5.71,0,0,0-1.21-1.47,6,6,0,0,0-2.45-1.24c-.31,1.59-.75,3.65-1.38,6a24.73,24.73,0,0,1-2.73,8.73c-1,1.71-6.28,14.37-6.85,16s-4.62,8-5.36,9.3-1.42,2.05-2.62,2.05-3.94-1.94-5.71-3.08a16.3,16.3,0,0,0-6.44-2.11c-.91.11-8.73.63-9.7,1.31s-9.58,6.1-10.09,7.07-3.2,8.22-3,9.41-.8,5.48-.18,7.19a8.93,8.93,0,0,1,.57,4.85c-.34,1-5.19,6-6.9,7.75s-13,12.21-13,12.21.34,1,3.14,1.08,15.8.12,16,.12l15.4-.12,12.94-.17,9.13.06a13,13,0,0,1,1-2.28c1.38-2.51,1.25-3.7,2.16-5.25A13.28,13.28,0,0,1,231,656.53Z" transform="translate(-129.57 -388.35)"/><path class="cls-3" d="M183.76,659.63c.69-.38,7.38-7.53,8.6-8.83,1.95-2.07,3.36-3.19,3.57-5.17s-1.06-2.8-1.52-6.37a19.24,19.24,0,0,1,.15-5.34c.33-2.49.62-4.72,2.07-6.7a9.24,9.24,0,0,1,2.31-2.36c.25-.17.72-.44,1.44-1a9.83,9.83,0,0,1,1-.7,5,5,0,0,1,1.93-.53c1.62-.23,2.42-.34,2.74-.37s1.8-.14,4-.15a30.48,30.48,0,0,1,3.58.13,7.22,7.22,0,0,1,2.93.66c.27.16.54.36,1.86,1.92,1.12,1.32,1.59,2,2.56,3.07,1.57,1.78,1.92,1.88,2.13,1.91.8.12,1.66-.41,3.34-2.38a53.59,53.59,0,0,0,3.83-5.5c2-2.9,2.32-2.38,4.3-5.31a33.63,33.63,0,0,0,3-5.27c.48-1.06.64-1.57,1.79-4.24.76-1.78,1-2.23,1.26-2.89,1.49-3.52,1.2-4.81,2.4-8.55.73-2.29.91-2,2.62-6.27,1.14-2.84,2-5.21,2.49-6.78a16.09,16.09,0,0,0,2.43,2.7c1.64,1.45,2.76,1.81,2.9,2.9.08.61-.22.85-.87,2.34-.51,1.19-.6,1.68-1.1,3.17-.78,2.36-3.15,8.57-4.33,11.94-.53,1.52-7.6,15.89-8.29,17.49s-4.94,9.35-6.69,10.8-4.49,4.18-5.25,4.94-3.8,1.83-6.46,2-4.18-.31-4.72-.69-.91-3.87-1.21-5.78-1.75-4.18-3.12-4.48-7.68-.46-8.75,1.29a7.45,7.45,0,0,0-1.82,5.4c.4,3.16,3.44,5.7,4.19,6.33,1.26,1.06,3,2.1,2.73,3a.88.88,0,0,1-.38.45,29.9,29.9,0,0,0-5.25,4.72c-.77.95-.83,1.36-.71,1.6s.92.37,1.2.37c3,0,6,.07,9,0,2.59,0,3.95.19,5.76-.74a7.77,7.77,0,0,0,1.25-.81c2.87-2.18,2.37-4.27,4.67-5.86a19.16,19.16,0,0,1,3.46-1.42c1.06-.38,2.16-.73,2.86-.92s3.14-.81,9.45-.26c3.07.27,4.6.4,5.34.71,2.31,1,3.36,2.47,6.92,5.09a15.69,15.69,0,0,1,1.44,1.18c1.3,1.21,1.16,1.51,1.76,1.9,1.48,1,2.79-.59,5.32.18a11.42,11.42,0,0,1,2.08,1.05,20.43,20.43,0,0,1,3.29,2.19c1.46,1.21,1.49,1.63,2.89,2.93a3.24,3.24,0,0,1,.56.69,2.52,2.52,0,0,1,.43,1.38c-.27,1.15-6.12.71-8,.56-8.07-.68-9.66-1.8-10.57-2.74s-.61-1.18-1.83-2.52a14.74,14.74,0,0,0-5.85-3.91,15.24,15.24,0,0,0-10.68.42,21.18,21.18,0,0,0-6.54,4.68c-1.49,1.42-1.54,1.77-2.32,2.49,0,0-3.32,3-20,.93l-16-.08Z" transform="translate(-129.57 -388.35)"/><path class="cls-3" d="M257.07,630.42a40.68,40.68,0,0,1,5.5-20.43c1.38-4,2.37-6.91,2.94-8.62.85-2.52,1-3.7,2.06-3.87.45-.08,5.17,1.44,8,2.28s5.32,2.13,5.86,3,.15,2.66-1.3,2.66a33,33,0,0,0-3.95.39c-1.45.15-1.45.3-2.66.38s-1.52,3.49-1.52,3.49c-.5,1.36-1.92,5.29-3.2,9.22-.37,1.16-.87,2.74-1.34,4.82a20.14,20.14,0,0,0-.45,2.24c-.34,3.13.74,4.77-.22,5.68-.16.14-.16.08-1.52,1l-.85.6c-.48.34-1.24.88-2.11,1.55a18.64,18.64,0,0,0-1.76,1.46,15.14,15.14,0,0,0-1.39,1.79c-.29.37-2,2.56-2.68,2.36S255.66,638.31,257.07,630.42Z" transform="translate(-129.57 -388.35)"/><path class="cls-3" d="M378.44,652.55a83.37,83.37,0,0,1,6-6.08,16.35,16.35,0,0,1,6.54-2.89,104.52,104.52,0,0,1,10.95,0c2.51.15,5.25.3,7.22,2.21,1.45,1.39,3.88,4.05,5.86,5.85a4.55,4.55,0,0,0,2.09,1.21,10.26,10.26,0,0,0,1.34.19c.11,0,.69.07,1.33.09,1.64.06,4.65-.08,6.11-.15l4.42-.21,1.12-.06c2.21-.13.6-.05,1.15-.08l.4,0a.57.57,0,0,0,.29,0,.54.54,0,0,0,.24-.23c.22-.42-2.44-2.2-2.45-2.2a31.7,31.7,0,0,1-4.94-4.11.67.67,0,0,1-.21-.41c0-.61,1-.89,2.65-2.16.6-.47,1-.87,1.85-1.65,0,0,.29-.28.7-.74a3.81,3.81,0,0,0,.44-.56,3.08,3.08,0,0,0,.28-.84s.07-.35.1-.68c.48-5.39-1.25-7.63-1.25-7.63a5.69,5.69,0,0,0-4.25-2.44,6.32,6.32,0,0,0-4.19,1.75c-1,1.07-2.73,2.44-3,3.73s-1,5.17-1.07,5.78-.22.76-1.75.91-8.54-2-10.31-3.2a25.64,25.64,0,0,1-6-6.46c-1.59-2.51-7.07-9.66-7.9-11.63-.92-2.16-.78-2-3.73-8.6-.68-1.51-1.29-2.85-2.06-4.84-1.15-2.94-1.08-3.22-1.9-5.35-2.2-5.71-4-7-3.23-8.83.3-.69,1.21-1.37,3-2.73,1.47-1.12,2.21-1.67,2.8-1.61s1.82.51,3.73,6.86c1,3.24.7,4.35,1.65,6.9.85,2.31,3.3,9.12,4,10.75s3.87,8.41,4,8.64,3.44,5.61,3.65,5.93a11.2,11.2,0,0,0,3.06,3.06c1.34.66,3.17,1.22,3.7.54a24.33,24.33,0,0,0,1.48-3c.35-.64,2.61-3.3,2.61-3.3a7.5,7.5,0,0,1,3-1.42,20.22,20.22,0,0,1,5.42-.21c.69.1,8.79,1.76,8.79,1.76a26.69,26.69,0,0,1,2.56,2.06c.35.46,2.22,3.43,2.22,3.43l1.3,3.12.23,4.25a8.09,8.09,0,0,1,0,3.79c-.53,1.75-1.52,3.49-1.54,4.06a4.15,4.15,0,0,0,1,2.65c.78.88,4.84,5.12,4.84,5.12,1,.74,2.1,1.59,3.19,2.56.53.46,1,.92,1.48,1.37.47.19,1.07.49,1,.91,0,.86-.66,2.75-4.61,2.69s-12.24,0-12.24,0-6.88-.43-9.07-.4-10.46,1.12-12.16-.46a54.83,54.83,0,0,1-4.34-5,7.64,7.64,0,0,0-5.63-3.52,59.23,59.23,0,0,0-8-.33c-1.84.08-3.33-.25-4.17.71s-4,4.69-4.74,5.71a17.79,17.79,0,0,1-3,3.22c-.55.32-4.43.17-5.72.06s-15.21-.27-15.21-.27-6.5-.07-6.9-.42.14-.17,1.52-1.69a54.26,54.26,0,0,0,3.63-4.23c1.3-1.72,4.89-6.81,4.89-6.81l2.64-4.61a26.15,26.15,0,0,0,1.29-5.47,38.13,38.13,0,0,0,.32-7.05c-.09-1.13-.31-3.87-.45-4.87s-1.36-5.34-1.68-6.3c-1-3-.88-3.39-1.61-5.85a30.56,30.56,0,0,0-2-5.39c-.49-1-1-1.77-1.29-2.3a13.1,13.1,0,0,0,4.31-1.83c.92-.61,1.17-1,1.75-1,1.95-.09,3.58,3.54,4.1,4.71a21.86,21.86,0,0,1,1.75,5.82,7.63,7.63,0,0,0,.73,2.85h0c.91,2.43,3,7.83,3.11,10.8s-.07,10.95-.91,12.7S366.2,650,366.2,650s-3.2,2.74-2.44,3a15,15,0,0,0,6.92.68Z" transform="translate(-129.57 -388.35)"/><path class="cls-1" d="M366.07,602.66a22.32,22.32,0,0,1,4.78,7.8c.17.52.63,2,1.4,4.26.5,1.42.93,2.58,1.21,3.33.59,1.86,1.17,3.72,1.76,5.58a60.18,60.18,0,0,1,.46,8.24c-.17,3,.11,5.79-.89,7.3s-3.6,4.82-3.6,4.82l-5,6-2.53,2.75s-.13.38,1.54.61a44.93,44.93,0,0,0,8.21,0c2.17-.29,5.19-1,6.58-2.48a21.88,21.88,0,0,1,5.13-4.3c1.9-1,2.72-2.36,4.74-2.7a77.13,77.13,0,0,1,11.67-.29c2.78.22,3.9-.26,5.76,1a27.51,27.51,0,0,1,4,3.26c1.25,1.19,3.47,4.53,5.45,5a26.48,26.48,0,0,0,6.16.34c1.2-.07,9.78-.42,10.34-.57s.07-.77-.54-1.22-3.77-2.74-4.75-3.59-2.13-2.12-2-2.28,1.71-1.33,2.59-2,2.86-2.47,3.12-3.23a11.51,11.51,0,0,0,.06-5.41c-.53-2.2-.78-3.34-1.54-3.95s-1.08-1.64-2.46-1.6-2.41-.78-3.95.31a13,13,0,0,0-3.7,3.31,16.81,16.81,0,0,0-1.38,4.56c-.16.82.46,2.9-.68,3.24a14.57,14.57,0,0,1-9.46-1.67c-3.77-2.2-4.35-2.43-5.91-4.3s-4.07-5.51-4.66-6.34-5.13-7.13-6.26-9.64-3.4-7.92-4.31-10.14-3.66-10-3.66-10c-.82-2.13-1.65-4.27-2.48-6.4l-1.58,1.37c-2.55,2.18-2.44,2-4.94,4.14a21.74,21.74,0,0,1-2.41,1.93A20.91,20.91,0,0,1,369.7,601C368.79,601.42,367.56,602,366.07,602.66Z" transform="translate(-129.57 -388.35)"/><path class="cls-2" d="M272.05,627a68.82,68.82,0,0,1,2.06-8.67c1-2.58,1.14-6.61,2.28-7s15.21,0,15.74,0,7.45-1.14,7.45-1.14l1-1.75a38,38,0,0,1-6.77-1.22,63,63,0,0,0-8.36-2.21c-3.12-.53-3.85-1.76-3.85-1.76L279.66,605s-5.08,1.46-5.93,1.53-1.14,1.79-1.68,2.6-4.25,12.76-4.25,12.76l-1.27,6.32v3.11s2,.53,3-.92S272.05,627,272.05,627Z" transform="translate(-129.57 -388.35)"/><path class="cls-4" d="M260.86,642s-2.55-2.68-1.54-4.39,6.66-5.46,7.21-5.82a56.28,56.28,0,0,1,5.33-3.19c1.54-.68,3.37.63,4.17,1s1.48.91.62,1.59-2.45,1.37-1.25,1.77,2.11,1.2,3.59,1.26,1-1.28,3.65.95,3.88,4.29,5.14,5.61,2.5,2.5.91,3.59-3.08,3.14-3.08,3.71-.06,1.71,1.59,1.36,1.54-1.19,3.66-1.65,3-1.31,4.39-1.25,1.54-.52,0,1.54-2.17,1.88-2.06,4-2.05,3.71.52,3.71,3.7,0,4.45-1.72-.46-2.85,1.42-2.62,3-.34,4.22,1.37,5,4.9,7.19,7.36,13.39,11.38,14.14,12,.2,1.54-1.41,2.37-5.43,4.53-6.34,5.5a39.1,39.1,0,0,1-4.54,3.33,42.11,42.11,0,0,1-5.35,3.14c-.38,0-4-1.56-4.83-2.82a80.61,80.61,0,0,0-5.11-6.58c-.65-.59-8.4-7.2-8.4-7.2l-9.07-8.18-6.77-6.93-5.51-6.57s-4.06-4-4.62-4.36S260.86,642,260.86,642Z" transform="translate(-129.57 -388.35)"/><path class="cls-1" d="M266.35,551.34c.23-.23,9.81-23.12,9.81-23.12l8.67-24.56,9.58-25.4s3.57-6.47,4.26-10.27,1.06-10.72,0-11.79-2-2-3.88-2-6.84.15-8.44,0-3.73-1-4.34-3.05.31-3.42,2.29-4.33,6.08-1.83,7.68-1.45a20,20,0,0,1,6.31,3.58,38,38,0,0,0,5.4,3.65,33,33,0,0,0,10,2.43c2.89,0,12.24-.3,14.22-1.21s7.14-6,8.74-7.46,6.77-1.54,8.9-1.07,3.5,1,3.88,3.35.76,3.43-1.37,4.57-8.29.61-9.66,1-3.88,1.36-4.33,2.89-1.9,3.11-.84,6.23,4.56,13,6.24,16,9.5,24.41,9.58,24.64-.92,1.44-3,3.8-4.18,5-5.32,6.31-.53,2.59-1.67,1.29a16.22,16.22,0,0,1-3.5-8.21c-.54-4-4.34-15.13-5.71-17.34s-4.86-10.87-6.16-12.7c0,0-2.35-2.2-4.48-2.36s-5.86-.3-7.91,2-11.26,24-11.26,24L289.92,530l-7.45,21.3s-1.52.83-5.47.83H266.35Z" transform="translate(-129.57 -388.35)"/><path class="cls-3" d="M282.78,551.72s7.37-20.61,8.13-23,4.87-14.22,4.87-14.22,5.44-16.35,5.55-16.6l3.8-8.65,3.83-8.2s2.28-4.34,3-4.85,4.38-2.54,7.28-1.4,4.25,1.52,5.6,4.39,6.26,12.95,7.43,16.41,3.86,14.47,4.38,15.65,2,4.69,2.21,4.85-4.41,12.16-4.95,13.76a8.11,8.11,0,0,1-1.9,2.89s-1.21-2.43-2.35-5.47-3.5-11.53-4.19-14.21S320,497,319.05,493.92s-1-4.33-2.74-2.51-3.65,9.43-4.64,11.56-6.16,20.08-7.6,23.88-5.71,14.83-6.54,17.26-.69,3.42-2,4.11-9.2,3.19-10.49,3.5A4.8,4.8,0,0,1,282.78,551.72Z" transform="translate(-129.57 -388.35)"/><path class="cls-3" d="M260,549.9a11.14,11.14,0,0,0,6.4,1.44l8.94-21.05s2.83-7.62,4.17-11.44,6.25-17.53,7-19.39l6.17-16.36s6.07-14.78,6.23-16a63.21,63.21,0,0,0,.46-8.65c-.23-1.49-.61-2.93-2-3.54s-4.9-.69-5.7-.68-3.61.42-4.69,0-3.25-.61-3.91-1.53-1.1-.93-1.07-2.18.19-2.62.91-2.94,2.73-1.25,3.22-1.39a23.79,23.79,0,0,1,4.85-.9c1.13.08,2.91.3,3.77,1.21a58.09,58.09,0,0,0,6.7,4.66,29,29,0,0,0,7.34,3.06,31.36,31.36,0,0,0,7,.78c2.12-.06,9.74.09,11.69-1a33.45,33.45,0,0,0,5.29-3.9c.89-.81,3.27-3.63,4.61-4.13a18.66,18.66,0,0,1,6.08-.95c1.6.13,3.56.08,4.56,1a4.33,4.33,0,0,1,1.69,3.23c.18,1.7.17,2.75-.52,3.25a11.77,11.77,0,0,1-4.77,1.38c-1.65.07-4.92-.15-6.35.42s-2.63.6-3.29,1.84-1.89,3.83-1.71,5.74,1.72,5.36,2,6.24c0,0,1.16,3.2,1.77,4.75s4.34,10,4.65,10.8,5.66,14.78,5.78,15.12,1.91,5.17,1.91,5.17a28.94,28.94,0,0,0,2.51-3.39c1.31-2,3.3-2.68,2.62-4.22s-3.31-4.56-4.16-6.9-4.28-12.83-5.25-14.26-2.68-9.47-3.65-11.06,3.14-1.2,5.3-1.43c0,0,4.85-.4,6.16-1.71s4.05-5,4.4-6.45-.06-8.78-.8-9.92-6.45-5.87-8.05-6.27-14.22-1-15.58-.63-3.73,3.19-4.72,4.33a13.51,13.51,0,0,1-4.11,3.58c-1.59.68-4.63,1.29-9.05.45s-9.35-6.07-11.17-6.72-5.48-.73-7.3-.8-9.36-.38-10.57,0-6.47,4.64-8,6.43a8.67,8.67,0,0,0-1.44,7.1c.6,1.9,1.9,6.39,3.34,7.3a17.08,17.08,0,0,0,8.14,2.51c3.27,0,5.09-.07,5.09.15a4.67,4.67,0,0,1-.45,3.27c-.92,2.06-5.86,13.39-6.62,14.83s-4.94,15.14-6,17-8.29,22.43-8.89,24.1c-3.15,8.65-5.21,14.59-9,23.88C261.07,547.2,260.41,548.81,260,549.9Z" transform="translate(-129.57 -388.35)"/><path class="cls-2" d="M274.87,494.47s5.24-12.18,5.7-13.4,3.19-10.49,3.5-11.86-3.42-2.74-4.6-3.27-4.38-3.35-5.59-4.41-3-5.48-4-7.46.08-7.91,1-9.73,3.73-6.24,3.73-7.38-.61-1.14-2.05-2.35-1.15-3,1.44-1.68a35.87,35.87,0,0,0,8.37,2.82c2.12.38,3.87.91,3.65,1.52a16.06,16.06,0,0,1-2.27,2.53l-5.18,4.31a3.27,3.27,0,0,0-1.66,2.1,11,11,0,0,0,.44,9.41c2.2,3.85,2.69,4.62,5.4,5.38a29.11,29.11,0,0,0,6.84,1c1.14,0,3.28-1,3.25.47s-2.6,7.7-2.92,8.42-8.37,18.93-8.88,23-1.26,4-4.23,10.81a88.53,88.53,0,0,0-4.22,11.72l-5.19,14.19-5.15,13.7-2.16,5.7c-1.54.23-3.6.3-4.57-.89-1.45-1.77.38-5.36,1.52-7.77a102,102,0,0,0,6.54-18.48c.31-.91,6.54-16.43,6.54-16.43Z" transform="translate(-129.57 -388.35)"/><path class="cls-2" d="M358.67,494.47s-4.18-11.42-5.1-12.87-4.71-11.94-4.25-12.7,3.42-1.9,5.24-3,6.16-5.63,7.3-7.46,1.9-6.08,2-8.59-2.74-9.2-3.65-11a3.93,3.93,0,0,1,.84-4.48c.83-.76-.38-2.28-.38-2.28a40.1,40.1,0,0,0-4.64,1.29c-1.52.61-6.24,1.82-7.45,2.2s0,2.76,1.48,3.85,4.75,2.66,5.67,4.66a18.61,18.61,0,0,1,1.4,7.07,10.31,10.31,0,0,1-2,6.85c-1.72,2.22-2.56,3.38-3.65,3.74a64.49,64.49,0,0,1-7.38,1.13c-1,.05-2.89-.06-3.2.39s2.09,6.47,2.44,7.69,2.78,7.14,3.76,9.94A137.61,137.61,0,0,0,353,494.47c1.2,2,1.31,2.42,2,2Z" transform="translate(-129.57 -388.35)"/><path class="cls-2" d="M299.73,540.84c.16-.38,9.9-15.89,11.11-18.33s4.86-12.77,5-13,1.44-2.89,3,2.43,4,11.69,4.48,12.8,6.7,8.65,6.7,8.65l2-.61L328.61,524l-3.29-11.63L320.42,498l-2.06-7c-.12-.76-.35-1.63-.79-1.71s-.85.24-2.21,3.27a44.24,44.24,0,0,0-2.34,6.61l-1.93,5.39-6.76,21.58-5.47,14.37Z" transform="translate(-129.57 -388.35)"/><path class="cls-5" d="M317.53,417.11l10.57,17.42.91-14.45-9.43-4.64Z" transform="translate(-129.57 -388.35)"/><polygon class="cls-5" points="175.03 32.26 175.03 46.86 187.95 28.76 185.52 26.56 175.03 32.26"/><path class="cls-5" d="M289.77,407.53l20.59.38,5.19-17.41.8-2.15.58,24.64-1.84,1.92Z" transform="translate(-129.57 -388.35)"/><polygon class="cls-5" points="213 20.1 190.39 26.98 187.95 28.76 185.52 26.56 186.87 24.96 193.58 18.27 215.52 18.27 213.28 20.02 213 20.1"/><path class="cls-6" d="M308.06,433.69l7.49-4.79,12.55,5.63-11-19.81L304.6,435.21Z" transform="translate(-129.57 -388.35)"/><path class="cls-6" d="M304.6,420.61c1.69-1,3.57-2.05,5.65-3.05a69,69,0,0,1,6.82-2.84l-27.3-7.19Z" transform="translate(-129.57 -388.35)"/><path class="cls-6" d="M317.16,414.88l11.85,5.2,13.84-11.71Z" transform="translate(-129.57 -388.35)"/><path class="cls-6" d="M317,414.88l6.19-8.26h0l-6.81-18.06c0,.38.54,22.85.55,23.23Z" transform="translate(-129.57 -388.35)"/><path class="cls-7" d="M364.26,603.26s5-1.54,7.07-2.91,8.78-7.17,8.78-7.17,4.68-4.18,7.65-5.72,4.8-2.37,6.08,1.24,4.07,11.15,4.75,12.22,4.34.15,6.09.38,6.31,2.89,9.2,5.32,4.13,7.36,5.93,5.55c.46-.45.38-3,.38-3s1.6,2.21,2,2.81,0-6.84,0-6.84a8.31,8.31,0,0,1,3.88,2.74c1.67,2.13,1.29-1.75,2.66-1.07s3.27,2.21,3.72,2.36,3.12.84,2.21,0a75.53,75.53,0,0,1-6.08-9.35c-.31-.92-10.8-14.83-12.4-16.35s-12.24-9.51-12.32-9.81,2.66-2.28,4.41-4,.69-4.34,5.93-5,5.78-1.52,7.91.46,4.49,3.8,7,3.65,2.74-1.9,4.79-1.6,2.51,1.14,5,2.21,4.56,2,6.61,1.29,4.64-2.2,5.86-2.2,7.45,3.65,9.5,4.64,4.72.91,7.46,3.57a58.24,58.24,0,0,0,9.73,7.3c2.74,1.6,2.51-.76,6,.23s3.73,1.46,7.91,4,6.46,4.63,8.51,4.17,2.36-3.35.61-5.4-10.34-16-11.71-17.56-8-10.88-9.28-12.4-1.67-3.95-2.58-4.94-11.26-13.77-12.93-15.29-9.66-10.34-11.1-11.33-5.51-6.46-7.91-7.72S433,509,431.67,508.07s-16.76-10.95-19.5-12.44-8.56-4.79-11.75-5.7-9.81-2.17-12.89-1.83c-3.94.44-9.22-.31-15.74,1.18a43.8,43.8,0,0,0-17,7.33c-6.74,4.94-10.33,10.85-12.77,14.88a56.23,56.23,0,0,0-5.4,10.3c-2.08,5.49-2.17,8.82-4.38,9.47s-5.14-2-6.54-3.33a19.32,19.32,0,0,1-3.7-5,63.72,63.72,0,0,0-7.36-10.19c-.46,1.27-1.2,3.19-2.24,5.5s-1.33,2.67-1.22,3.5c.22,1.55,1.66,2.19,5.82,4.86,4.53,2.92,5.67,4,6.57,5.34s2.13,3.88,1.37,4.64-2.31-.35-8-2.75c-5-2.09-6.17-2.37-7.43-1.94-1.7.58-2.26,2-3.73,4.29a43.94,43.94,0,0,1-8.65,9.34,30.15,30.15,0,0,1-10.51,5.3,35.58,35.58,0,0,1-9.53,1.09,47.89,47.89,0,0,1-14.54-1.26,51.29,51.29,0,0,1-13.12-5.76c-3.1-1.9-3.33-2.85-5.47-3.19s-9-.23-11.41-.35-6.73-.68-7.64-1.25-3.65-2.4-4.34-2.4-5.13-.34-6.73.69-2.05,3.53-2.62,5.36-2.28,3.31,0,4.11,4.1.34,6.39.34a9.29,9.29,0,0,1,6.84,3.63c2.05,2.41,8.78,8.8,8.67,9.14a1.62,1.62,0,0,1-1.83,1.26c-1.48,0-3.3-1.83-6.38-3.08s-8.1-4.45-9.81-4.34-3.2,1.94-1.37,3.54,9.81,9.24,12.09,11.29,3.53,1.49,7.07,3.77,5.93,2.16,8.78,4.22,4.91,3.19,5.94,4.67,5.8,6.38,5.8,6.38,8.68,5.72,10.85,7a38.14,38.14,0,0,0,7.67,3c2.65.81,7.83,3.22,9,3.59s2.05,2.29,3.73,2.61,8.55,2.2,9.15,2.37,5.67,1.44,7.95,1.22,6.39-1.26,7.87-1.49,5.53-.68,7-.68,8.82-3.53,9.73-3a28.88,28.88,0,0,1,4.56,4.39c1.14,1.37,1,3,2.62,2.74s3.31-2.29,4-2.63a16.28,16.28,0,0,1,3.87-.45c.46,0,6.72-.35,8.32-.23s5-1.14,6.38-1.14a20.73,20.73,0,0,0,3.21-.35l4.32-1.59Z" transform="translate(-129.57 -388.35)"/><path class="cls-7" d="M258.72,540.9l3-8.6c.14-.4,6.34-17.94,6.49-18.35l10.29-24.47s-9.63-8.4-10.86-8.86a21.47,21.47,0,0,0-8.29-2.6c-5.22-.61-4.76,1.37-8.29-2.3s-13.36-9.58-16-11.29-12-4.61-15.82-4.91-11.67-1.68-14.74-2.14-6.6-3.36-9.21-4-22.12-3.36-26.26-2.75-12.75,2-15.82,3.21-17.51,6.42-19.2,8.11-4.91,4.12-4.45,7,.31,5.5,2.76,6.88,2.77,1.22,6.15-.31,3.68-4.13,8.29-4.43,11.82-.15,15.66,1.07,13.36,2,17.82,3.67,9.82,3.36,12.59,5.5,13.05,9.48,15.35,11.93,9.83,9.32,11.22,11,6.6,6.27,8.29,9.18a72.47,72.47,0,0,0,7.37,10.32c2.76,3.13,6.3,8.21,11.82,11.33,3.51,2,4.55,2.57,5.46,3,.55.27,1.17.53,1.91.86C256.15,539.82,257.66,540.46,258.72,540.9Z" transform="translate(-129.57 -388.35)"/><path class="cls-8" d="M292.27,555.14a14.5,14.5,0,0,1,4,5.64c1.07,3.18,4.11,10,4.26,11.72s2,12.83,2.21,15.41.15,5.63-1.45,7.61-4.18,2.58-7,2.89-2.51-.28.23,2,4.87,3.61,4,3.76a11,11,0,0,1-4-.86c-1.59-.52-3.57-2.47-4.94-2.9a78.44,78.44,0,0,0-9.73-2.84c-4.11-.78-9.66-3.55-11.26-4.22s-11.25-4.84-14.6-7-3.95-5-5.86-6.21-9.65-7.33-11.33-8.4-4.64-1.14-7.83-3.19a74.7,74.7,0,0,1-10.42-8.9c-1.44-1.67.92-1.6,3.27-.08a21.29,21.29,0,0,0,7.68,3.5c3.58.84,7.38,2,7.46.61s-.38-2.05-2.82-4.41-5.85-5.55-8.36-8.44-2.21-5-5.1-5.1-3.27,1-4.71.53-3.27-1.36-1.83-2.35,1.37-2.36,3.42-2.28,3.35-1.45,5.33,0-.09,1.83,3.49,2.06,12.52-.15,14.59.15,1.31-1,5.57,2,5.09,4.24,8.44,5.54,4.94,2.52,8.67,3.51,7.3,1.21,12.17,1.44,12.77.54,14.37-.07A8.13,8.13,0,0,0,292.27,555.14Z" transform="translate(-129.57 -388.35)"/><path class="cls-7" d="M238.38,552.6a37.21,37.21,0,0,1,5.94,2.52c1.48.91,2.5,3.08,5.24,4.68s9.41,5.07,10.15,5.13-.79.63-2.56,0a27.62,27.62,0,0,1-5.31-2.28c-2.33-1.31-2.33-1.83-4.73-1.83a25.51,25.51,0,0,1-7.53-.85c-2.22-.74-3.42-1.43-2.74-2.74A31.28,31.28,0,0,0,238.38,552.6Z" transform="translate(-129.57 -388.35)"/><path class="cls-7" d="M257.89,556.52c.46.31,5.65,3.56,7.47,3.73s11.41,1.26,12.78,1-1.12-1.58-3.76-2.33-11.93-2.29-13.87-2.86-4.83-1.31-4.61-.68,2.5,1.17,2.5,1.17Z" transform="translate(-129.57 -388.35)"/><path class="cls-7" d="M249,568.81a83.58,83.58,0,0,1,9.05,7.39c1.37,1.6,3.57,5.17,2.05,4.72s-5.55-1.83-7.6-3.73-5.25-5.85-5.55-7.07S249,568.81,249,568.81Z" transform="translate(-129.57 -388.35)"/><path class="cls-7" d="M253.78,581.72c.52.38,8,5.51,9,5.74s3.08-1.13,0-2.79-6.62-4.28-7.65-4.63S253.78,581.72,253.78,581.72Z" transform="translate(-129.57 -388.35)"/><path class="cls-7" d="M242.2,551.25c.69.16,3.64,1.08,4.73,2.22a29.59,29.59,0,0,1,2.69,3.65c.23.34-2.62-.92-3-1.32s-1.94-1.54-3-2.45a12.74,12.74,0,0,1-1.49-1.5Z" transform="translate(-129.57 -388.35)"/><path class="cls-7" d="M264.33,580c1.6.61,7.53,4.89,8.33,5.49s-.57.42-.57,2,2.62,2.37,3.42,3.51a36.59,36.59,0,0,0,4.22,3.91s-.45,2-3.65-.43-8.51-5.32-8.87-6.62-2.88-7.31-2.88-7.31" transform="translate(-129.57 -388.35)"/><path class="cls-7" d="M274.11,627.69c.22,0,25.47-16.2,25.47-16.2l4.3-3.37,4.79-1,9.47-1.51,8.25-2.37,5,5,3.31.91,5-1.81,9.3-.64,9.42-1.52-.86,6.4,1.18,6a28.42,28.42,0,0,1,2.21,5.65c.57,2.55,1.77,9.47,1.19,12.58s-5.79,7.78-7.38,9.71-12.8,13.91-14.6,15.55-13.61,11.2-14.21,11.67-4.82-3.93-4.82-3.93-10.72-9.43-11.64-10.33-6-7.55-6.83-7.47-2.54-.56-3.17.33-.88,2.81-1.77,3.43-2.72,1.64-4,.92-.4-1.51-.65-2.6a3.88,3.88,0,0,1,.26-2.57c.29-.57,2.16-2.85,2.4-3.15s-.38-1.75-1.87-.69A28,28,0,0,1,288,649.2c-.78.25-3.76-.26-2.66-1.44s2.63-3.34,3-3.72a2.29,2.29,0,0,0-.16-2.74c-.83-1-5.76-7.42-6.53-7.38s-1.34.73-2.92.28-4.21-.87-3.72-1.53,2.55-1.93,1.91-2.43a12.16,12.16,0,0,0-2.23-1.35C274.12,628.65,274.11,627.69,274.11,627.69Z" transform="translate(-129.57 -388.35)"/><path class="cls-5" d="M236.16,570.23a26.64,26.64,0,0,0,2.57-3.59c.83-1.34-.62-2.83-1-3.48-4-6.23-6-9.35-6.41-10.07-2.37-4.4-1.9-6.41-4.87-9.51a10,10,0,0,0-3-2.26c-.39-.19-4.54-2.07-7.64,0-.13.08-2.53,1.72-2.07,3.29.33,1.15,2.08,1.84,3.27,1.64.17,0,.16,0,.72-.18,0,0,1.24-.31,2.19-.44,1.69-.23,4.47,3.22,5.87,5,4.36,5.48,3.73,4.87,4.34,5.54,1.08,1.19,5.13,5.59,5.24,6.44s.74,1.54-1.25,1.08a45.42,45.42,0,0,1-6.33-1.42c-1.88-.74-7.87-5.07-8.56-5.08a3.2,3.2,0,0,0-2,1,1.55,1.55,0,0,0,0,.22c.1,1.56,2.28,2.86,2.28,2.86,3.83,2.52,6.81,6.24,9.48,7.32a19.14,19.14,0,0,1,2.19,1c.57.32.82.49,1,.61C232.88,570.62,234.07,570.88,236.16,570.23Z" transform="translate(-129.57 -388.35)"/><path class="cls-8" d="M296.05,654.87c.68-.23,1-5,3.76-6.16s10.95-7.87,13.46-9.69,7.07-4.91,8-6.16-.91-3.42-3.53-1.43-1.94,3.59-5,2.68a5.14,5.14,0,0,1-2.58-1.24c-.86-1,0-2.18.07-4.8,0-.6.11-5.59-2.74-7.36-.51-.32-.84-.53-1.14-.4-1.8.76,2.47,11.34-.91,13.8a9.12,9.12,0,0,1-2.73,1.06,25.61,25.61,0,0,1-3.43.43c-4.68,1.14-12,4.79-7,4.56s7.88-1.37,9.14-1.26,1.14,1-3.2,3.43-5.81,5.7-.57,3.42a49.39,49.39,0,0,0,7.87-4.11s-9.35,7.76-9.92,8.44S296.05,654.87,296.05,654.87Z" transform="translate(-129.57 -388.35)"/><path class="cls-8" d="M314.41,643.66c1.52-1.37,1.22-2.44,3-3.2s3.65-.91,7.68-.91,8.67,4.33,9.58-.68a29,29,0,0,0,.23-7.1c-.09-.63-.23-1.39.17-1.71s1.27-.08,1.83.34,1,1,1.42,5.27c.19,2,.17,2.72.74,3.2.35.29,1,.27,2.38.07,3.2-.46,2.44-1.52,4.95-3s5.55-2,5.47-.38-2.09,3.5-4.66,5.32-10,7.68-11.46,9.43-7.3,5.64-9.58,7.2a13,13,0,0,1-6,1.93c-1.22.15-3.42-.75-1-1.93s10.88-5.68,12.85-7.88,3.27-3.5.76-3.27-1.82.15-4,1.67a30.91,30.91,0,0,1-7.29,3.65,36.34,36.34,0,0,1-6.4,1.55c-2.43.43-3.42.5-2-1.09s.63-3.2,3.62-3.81,5.66-1.29,9.31-2.2,6.68-1.83,6.19-2.05-.59-.69-6.7-.38c-2.45.12-4.3.18-5.66.21a21.7,21.7,0,0,1-3.14.09A17.48,17.48,0,0,1,314.41,643.66Z" transform="translate(-129.57 -388.35)"/><path class="cls-8" d="M331.12,609.7c-.51.8.29,3.42,0,6.28a17.32,17.32,0,0,0,1,8.61c1.19,2.68,3.24,6.84,3.24,6.84l8.21-.13c2.51,0,6.69.64,3.63-1.64s-6.94-4-6-5.44,4.17-.7,6,.37,5.84,2.11,7.09,1.88-7.41-4.62-9.69-5.9-7.53-3.11-5.13-3.23,6.39,1.26,8.55,1.94,2.86-.11,0-1.94-6.95-2.62-5.36-3.87,11.6-.57,13-2.17,3.85-3.54,1.48-3.77-5-.77-5-.77-6.89.77-9,1.12-3.1,1.82-5.5,2.28-3.83,1.43-4.53.68A5.23,5.23,0,0,0,331.12,609.7Z" transform="translate(-129.57 -388.35)"/><path class="cls-8" d="M301.56,612.56s1,5.85,2.66,7.37,5.3,2,8.2,3.73,5,2,6.33,1.82,1.92-1.67-2.09-3.65-8.49-3.27-3.24-2.28,7.76,1.14,8.44.76-6.92-3-9.05-5.1-1.47-2.35-1.08-2.43,15.76-1.37,16.75-1.44.46-2.59-.53-3.88-2.13-2.59-4.11-2.13-3.79,2.39-7.5,1.82-5.73-2.13-6.72-.19-3.8,3.46-5.1,3.92A14.92,14.92,0,0,0,301.56,612.56Z" transform="translate(-129.57 -388.35)"/><path class="cls-7" d="M285.32,618.14" transform="translate(-129.57 -388.35)"/><path class="cls-9" d="M344.64,581.77s1.63,8.06,2.1,8.65,1.93.23,2.11-2.87a67.75,67.75,0,0,0,0-7.77c-.12-.58.35-2.1-1.17-1.28A11.07,11.07,0,0,0,344.64,581.77Z" transform="translate(-129.57 -388.35)"/><path class="cls-9" d="M352.75,579s2.84,6,2.91,7.56,0,3.19-1.45,2.81-3.61-1.56-3.53-3-.47-7.4-.47-7.4Z" transform="translate(-129.57 -388.35)"/><path class="cls-9" d="M357.85,578.26a19.3,19.3,0,0,1,2,4.68c.55,2.26-.78,4.28-1.4,3.11s-4-6.31-4.13-7,3.11-.39,3.11-.39Z" transform="translate(-129.57 -388.35)"/><path class="cls-9" d="M362.6,576.08c.31.94,3.74,5.22,4.6,6.7s.93,3.33-.39,3.62-3.51.28-4.21-.89-3.9-9.43-3.9-9.43Z" transform="translate(-129.57 -388.35)"/><path class="cls-9" d="M368.91,576.47c-.16-1.4-1.56-3.74-3-3s-1.4,3-1.4,3l4.91,8s4.44.19,3.82-1-2.58-3.43-3-4.44A20.82,20.82,0,0,0,368.91,576.47Z" transform="translate(-129.57 -388.35)"/><path class="cls-9" d="M375.69,575.3c-2.34-1.87-3.12-4-4.13-4s-2.9.62-2.7,1,1.76,5.07,1.84,5.3,2.81,3.76,2.81,3.76L376,579Z" transform="translate(-129.57 -388.35)"/><path class="cls-9" d="M374.49,567.53c.06,0,3.79,1,4.18,2.13.46,1.37,1.52,4.11,0,4.41s-1.75.54-3.42-.68-3.23-2.89-2.68-3.95,1-2.82,1.46-2.59A.81.81,0,0,1,374.49,567.53Z" transform="translate(-129.57 -388.35)"/><path class="cls-9" d="M378.29,560.88c.34.11,4.56,3.65,4.73,4.56s1.2,1.66,0,2.28a5.59,5.59,0,0,1-3.56.52c-.71-.23-4.75-2.23-4.21-3.31s-1-3.82.42-4A8.36,8.36,0,0,1,378.29,560.88Z" transform="translate(-129.57 -388.35)"/><path class="cls-9" d="M379,557.88s.06-5.48.49-5.71,1.41-.07,2.63,1.07,4,3.27,4.11,4.64a16,16,0,0,1-.46,4.41c-.15.38-.61,1.89-1.22,2.27s-4.56-3.78-4.56-3.78Z" transform="translate(-129.57 -388.35)"/><path class="cls-9" d="M382.34,550.67c.06-.17,3.39-7,3.89-7.13a4.72,4.72,0,0,1,3.64,2.28c1.31,1.88,4.33,4.19,4.45,5.43s.74,2.56-.75,3.64-3.3,2.8-3.65,2.91a12.76,12.76,0,0,1-3.36-.57C386.39,557.06,382.34,550.67,382.34,550.67Z" transform="translate(-129.57 -388.35)"/><path class="cls-9" d="M387.11,541.6c.08-.23-.68-5.63,2.13-4.71s13.31,10.57,13.76,11,.92,2.93.31,2.76a65,65,0,0,1-7.23-2.76,32.25,32.25,0,0,1-5.7-3.57C389.47,543.5,387.11,541.6,387.11,541.6Z" transform="translate(-129.57 -388.35)"/><path class="cls-9" d="M390.15,535.59c1.45-.91,4.87-3.42,6.16-2.89s11.1,9,12.4,11,2.66,3.5,0,3.73-2.89.07-5.55-1.75-5.94-4.71-7.08-5.62S390.15,535.59,390.15,535.59Z" transform="translate(-129.57 -388.35)"/><path class="cls-9" d="M398.44,532c.84-.46.36-5,5.16-1s12.56,11,14.31,12.5a2.61,2.61,0,0,1,.3,4c-.76.53-2.43-.16-3.49-1s-4.49-3.5-5.1-3.81S398.44,532,398.44,532Z" transform="translate(-129.57 -388.35)"/><path class="cls-9" d="M405.29,530.12s5.55,1.22,6.23,1.75,4.49,2.3,7.07,4.91a51.51,51.51,0,0,1,6.62,9.54c-.08.23.3,2-2,0s-6.39-5.48-6.39-5.48l-11.55-10s22.12,2,23.19,1.83,7.45,1.67,8.21,2.51,9.05,7.91,10.8,9.43a43.24,43.24,0,0,1,4.41,5.09s-4.33,1.5-5.4,1-9.28-5.43-10-5.66a70.52,70.52,0,0,0-7.3-.22,5.35,5.35,0,0,1-3.42-1.07C425.13,543.2,405.29,530.12,405.29,530.12Z" transform="translate(-129.57 -388.35)"/><path class="cls-9" d="M436.39,531.49c.3.3,17.64,18,19.39,18.78s9.35,2.26,8.52.41-3.12-5.58-5.4-6.95S441.48,529.82,440.27,529s-5.94-1.6-6.09-3.2.08-3.95-.83-4.48-8.52-3.27-10.5-3.88-4.1-1.22-4.64-1,2.13,3,2.51,3.19S436.39,531.49,436.39,531.49Z" transform="translate(-129.57 -388.35)"/><path class="cls-9" d="M439.66,525.94c.23.07,14.37,10.51,15.59,10.84s2,.11-.46-2.1-4-3.42-2.89-3.72,5.71,1.82,6.16,2.35,7.83,7.46,9.81,9.43,5.4,6.26,7.3,8,4,2.76,2.89,3.37-1.14,1.06-3.42,0-5.63-3-6.31-3.37-5.4-3.85-5.4-3.85Z" transform="translate(-129.57 -388.35)"/><path class="cls-9" d="M457.22,553.47c1.07-.16,8.29-.38,9.36,0s4.18,4.63,6.92,7.14,10.49,10.19,13.23,13,4.11,5.47,6.08,7.68,4.57,5.4,4.95,5.85-.84,3.58-1.37,3.05-8.21-7.23-10.72-9.28S459.72,556.51,459,555.59,457.22,553.47,457.22,553.47Z" transform="translate(-129.57 -388.35)"/><path class="cls-9" d="M468.78,553.62s22,22.81,23.73,24.56a26.64,26.64,0,0,1,3.95,5.25c.31.68,2,1,2,1s-2-3.5-2.43-4.38S486,566.77,484.6,565s-9.2-9.28-9.2-9.28l-4.87-2.41Z" transform="translate(-129.57 -388.35)"/><path class="cls-9" d="M436.69,554.79c-1.44-.72-1.59-1.78.08-2.54s3.42-1.51,5.63-.68,8.06,4.94,10.57,7.14,4.86,3.73,6.84,5.86,3.5,3.27,3.5,5.09.15,2.74-.46,2.82-.68-.31-4.26-2.36-13.15-8.75-14.29-9.73S436.69,554.79,436.69,554.79Z" transform="translate(-129.57 -388.35)"/><path class="cls-9" d="M446.81,552.6s15,11.74,16.52,13.26,1.8,5.55,3.25,7.15.91,1.06,4.87,3.8,6.38,4.87,8.51,4.87,3.5-1.6,1.45-2.89-8.37-8.5-10-9.95-10-10.66-12.44-12.18-1.48-1.6-3.84-2.21S446.81,552.6,446.81,552.6Z" transform="translate(-129.57 -388.35)"/><path class="cls-9" d="M419.58,550.67c.69.29,17.8,10.89,18,11.81s-.66,1.59-2,1.59.18,1.6,2.08,2.29,2.82,2.11,6.35,2.48,4.85.11,4.54-1.7-3.85-7-5.45-7.31-16.54-8.42-18.14-9.16-4.67,0-4.67,0Z" transform="translate(-129.57 -388.35)"/><path class="cls-9" d="M408.72,552.08c.44,0,10.25,8.46,11.93,9.07s6.23,3.79,7.94,3.41,5.44-.6,3.84-1.66-7.9-6.16-10-6.93-8.67-4.69-9.88-5.19a5.12,5.12,0,0,0-2.89-.44c-.38.16-1.3,1.74-1.3,1.74Z" transform="translate(-129.57 -388.35)"/><path class="cls-9" d="M395.34,554.45c.29.16,3.94,1.4,5.84,3a20.33,20.33,0,0,0,6.61,3.79c2.13.61,4.87,1.83,6.47,1.6s4.11-1.19,2.58-2-6.08-4.35-7-5.11-1.9-2.32-2.44-2.41-2.5-.44-2.89,0a10.46,10.46,0,0,0-.92,2.33,22.91,22.91,0,0,1-3.41-1.36,10.07,10.07,0,0,0-2.05-1.19A25.13,25.13,0,0,0,395.34,554.45Z" transform="translate(-129.57 -388.35)"/><path class="cls-9" d="M394.54,561.6c.33.31,2.3,3.2,4.74,4.64s3.42,3.51,4.94,2.74,3.12-2.28,3-3.2-2-3.27-2-3.27-1-.38-2.74-.91a30.37,30.37,0,0,1-4.95-2.51l-2.66.23Z" transform="translate(-129.57 -388.35)"/><path class="cls-9" d="M387.79,568s3.58,2.59,4,2.89,1.09,4.28,3.59,1.61,2.64-3.84,1.43-5.35a11,11,0,0,0-3.2-3,2.21,2.21,0,0,0-3,.47C390.3,565.1,387.79,568,387.79,568Z" transform="translate(-129.57 -388.35)"/><path class="cls-9" d="M382.6,572.86c.48,1.37-.36,3,2.08,3.77s3.65,3.07,4.79.56,2-3.57.38-5.09-1.6-2.59-2.78-2.06A52.09,52.09,0,0,0,382.6,572.86Z" transform="translate(-129.57 -388.35)"/><path class="cls-9" d="M380.42,579.32c1.67,3.42.83,5.31,3.42,5.09s4.48-.27,3.23-1.88-3.66-4.65-4.47-5.49-2.11-2-2.64-1.6S380.42,579.32,380.42,579.32Z" transform="translate(-129.57 -388.35)"/><path class="cls-9" d="M377,584.62c-.76,1.32-1.6,2.38-.38,3.52s1.22,3,2.7,1.35,1.63-2.77,1.33-4.87-.24-3.8-.85-5.43-2.27,1.15-2.5,2.35A25.91,25.91,0,0,0,377,584.62Z" transform="translate(-129.57 -388.35)"/><path class="cls-9" d="M370.08,588.07c-.76,4.25-1.45,6.08,0,7.3s4,1,4.48-.76,1-5.56,0-6.54-1.5-2.74-2.8-2.06A3.66,3.66,0,0,0,370.08,588.07Z" transform="translate(-129.57 -388.35)"/><path class="cls-9" d="M363.67,591c1.31,3.31.63,5,2.3,5.14s1.73,1.68,2.31,0,.46-4.79,0-5.48-1.68-.17-3-.5A1.26,1.26,0,0,0,363.67,591Z" transform="translate(-129.57 -388.35)"/><path class="cls-9" d="M358.37,593.5c.22,2.48.53,3.92,1.67,4.83s3.8,4.11,3.95,1.3-.61-5.4-.83-7.15,1-3.62-1.14-3-3.58.71-3.65,2A13,13,0,0,0,358.37,593.5Z" transform="translate(-129.57 -388.35)"/><path class="cls-9" d="M351.44,593.5c0,.19-1.36,2.86,0,5.36s.22,5.37,2.66,4.4,2.14.78,2.14-4.24,1.18-6.62-.82-7.3S351.44,593.5,351.44,593.5Z" transform="translate(-129.57 -388.35)"/><path class="cls-9" d="M344.64,595.44c.26.31-.72.15.8,4s2.05,6.05,3,3.86,1.52-1.89,1.14-4.4.7-4.71.12-4.86-2.48-1-3.92-.5A1.73,1.73,0,0,0,344.64,595.44Z" transform="translate(-129.57 -388.35)"/><path class="cls-9" d="M337.68,596.13c.84,3.88-1,6.61,1.83,6.77s3.34.21,3.57-2.14.15-5-1.14-5.7S337.68,596.13,337.68,596.13Z" transform="translate(-129.57 -388.35)"/><path class="cls-9" d="M330.53,596.91c-.3,3.1-1.67,5.05-.68,6.54s1.75,3.7,3.8,3.25,2.74.54,2.89-2.58-.08-5.9.23-7.21-1.07-1.69-2.51-1.85S330.53,596.91,330.53,596.91Z" transform="translate(-129.57 -388.35)"/><path class="cls-9" d="M327.19,581.15c-.08,1.36-.38,5.55.76,7.14a23.43,23.43,0,0,0,5.85,4.89c1.14.51,1.6-.7,1.22-2.53s-2.13-4.1-1.29-5.4a2.3,2.3,0,0,0-.23-3.12,27.31,27.31,0,0,0-4-2.81C328.33,578.64,327.19,581.15,327.19,581.15Z" transform="translate(-129.57 -388.35)"/><path class="cls-9" d="M328.78,573.77c.08,1.14,0,1.6,2.34,3.73s5,5,5.95,4a4.44,4.44,0,0,0,1.45-3.2c-.08-.92.46-1.53-1.71-3s-2.48-2.6-4.07-3.66-1.52-1.6-2.36-1.14S328.78,573.77,328.78,573.77Z" transform="translate(-129.57 -388.35)"/><path class="cls-9" d="M335.74,565.78c1.71,2.74,3,4.46,4.69,4.63s2.16-1.8,4.21-3.27.68-3.35,0-4.29-.34-1.18-2.51-1-3.31,1.63-4.45,2.27A7.38,7.38,0,0,0,335.74,565.78Z" transform="translate(-129.57 -388.35)"/><path class="cls-9" d="M346.75,560.78c1,3,2.78,5.27,3,6.05s2.74,5,4.34,4.88,4.69-1.82,4.23-3.13-.12-1.87-2.51-4-3.2-5-4.57-5.5-2.89-1.82-4-.76A2.22,2.22,0,0,0,346.75,560.78Z" transform="translate(-129.57 -388.35)"/><path class="cls-9" d="M352.47,557.43c1.07.6,4.26,4.08,5.4,5.42s2.36,4.49,4.95,3.25.41-4.4,2.24-5.32a7.1,7.1,0,0,1,4.17-.7c1.42,0,2.9-.53,1.76-1.75s-5.25-4.46-5.82-5.29a22.62,22.62,0,0,0-3.24-2.77s-4.24,1-5.06,1.58a34.62,34.62,0,0,0-3.68,2.94A22.47,22.47,0,0,0,352.47,557.43Z" transform="translate(-129.57 -388.35)"/><path class="cls-9" d="M364.83,548.22c1.71.8,3.09,1.93,6.56,2s5.87,1,6.33,2.33,1.57,3.72.67,4.17-.89,2.88-3.35,1.56-6.37-3.54-6.37-3.54l-6.74-4.52Z" transform="translate(-129.57 -388.35)"/><path class="cls-9" d="M368.67,543.53c2.66.47,3.81,1.27,7.29,1.27s4.79.22,4.82,1.14.54,2.73,0,3.3,1.29,1-2.95,1.1-5-.25-8.6-1-7,0-5.22-1.82,4.25-4.91,4.25-4.91Z" transform="translate(-129.57 -388.35)"/><path class="cls-9" d="M372.57,539.21c-.21-.46-4.19-2.06-1.18-3.08A18.82,18.82,0,0,0,376,534a13.83,13.83,0,0,0,2.43,2.8c1.38,1.17,4.35,1.56,3.95,3.31s-.33,3.79.26,4.48,0,3,0,3a10.44,10.44,0,0,1-1.82-1.6,14.58,14.58,0,0,0-4.21-2.21C376.35,543.77,372.57,539.21,372.57,539.21Z" transform="translate(-129.57 -388.35)"/><path class="cls-9" d="M375.12,530.12c3.17-.38,3.74.27,3.85-.74s-.49-3.6-.24-3.44,1.49-.42,2.29.49a28.9,28.9,0,0,0,3.09,3c1.59,1.39,2.12,5.26,2.12,5.26l-1.44,2.14s-2.62.09-3.31,0a52.24,52.24,0,0,1-4.91-1.95Z" transform="translate(-129.57 -388.35)"/><path class="cls-9" d="M381,524.42c.09,0,2.77-.12,3.5.68s2.82,1.52,2.55.8-1.18-3-.34-3.08a8.46,8.46,0,0,1,3.12.38c1.44.38,3.65,3.19,3.88,3.5s1.33,2.66.81,3.12-1.44,1.74-1.89,1.9a18.3,18.3,0,0,1-3.49,0c-.91-.08-2.22-1.14-2.93-1.6S381,524.42,381,524.42Z" transform="translate(-129.57 -388.35)"/><path class="cls-9" d="M391.12,519.76a19.2,19.2,0,0,1,4.74,1.88c.57.34-.53-2.57-.52-3s1.14-1.14,2.06-.4a65.58,65.58,0,0,1,5.13,5c1.48,1.65,3.71,3.39,3.53,4.06a2.23,2.23,0,0,1-2.46,2.08,38.59,38.59,0,0,1-5.63-.55c-1-.29-2.81-2.36-3.29-2.89s-3.9-4.24-4-4.53a4.85,4.85,0,0,1,.52-1.37Z" transform="translate(-129.57 -388.35)"/><path class="cls-9" d="M400.19,517.19c1.52.08,5.15,1.45,5.88,2.21s3.93,3,4.54,3.88,3.19,3.34,3.19,3.34,1.22,2.48.53,2.76a31.85,31.85,0,0,1-3.57.74s-3.17-3-4.43-4.22-6.89-5.82-6.89-5.82Z" transform="translate(-129.57 -388.35)"/><path class="cls-9" d="M407,516.66c1.95-.31,8.41-.15,9.32.53s4.72,3.42,6.16,4.56,5.71,5.39,6.12,5.55,1.94,1.66.5,2.09-3.5-.2-5.17,0-2-1.93-2.59-2.84-6.79-6.24-6.79-6.24l4.47,5.63s2.09,3.1,1.94,3.6-2.32,1-2.61.58-3.4-3.35-3.4-3.35l-4.71-6-2.74-2.13-.84-1.45Z" transform="translate(-129.57 -388.35)"/><path class="cls-9" d="M399.44,498.71s13.07,9.43,15.58,10.42,13.08,5.25,13.57,5.78,5.36,4,7.57,5.86a19.79,19.79,0,0,0,7.07,3.8c1.68.38,5-.46,5-.46s.69-1.44-1.44-2.58-8-7.36-13.16-9.84-12.78-7.88-16.5-9.48-6.54-3.73-7.53-3.95-13.69-5.78-16-6.24-16.22-2.28-18.53-.84-5.42,3.35-7.17,4.41-7.53,4.26-8,5S338,528,337.11,529.38s-9.7,19.73-11.29,23.22a60.39,60.39,0,0,0-3,8.18c-.8,2.5-4.33,4.75-1.82,6.36s3.3,3.21,5.24,1.44,4.11-6,4.85-6.73c.39-.39-.18-.92-.25-2-.11-1.82,1.13-2.86,2.13-4.36,1.77-2.65,1-3.06,2.78-6.16,1.34-2.32,1.66-1.89,3.58-4.68,2.44-3.55,1.93-4.27,4.25-7.41,1.63-2.21,2-2.07,3.5-4.29a39.3,39.3,0,0,0,2.65-5.07c1.4-2.94,1.58-3.65,2.83-6.23,1-2.18,2-3.91,2.31-4.49,3.87-6.81,11.26-11,15.37-13.12s6-3,7.11-3,6.1-.69,6.87-.8,6.47-1.14,8.3-1A56.88,56.88,0,0,0,399.44,498.71Z" transform="translate(-129.57 -388.35)"/><path class="cls-9" d="M341.41,556.05c1.9.91,2.66,1.85,3.8,1.38s4-.92,5.63-1.38,2.81-1.36.91-2.58a44.57,44.57,0,0,0-6-3.2c-1-.38-1.5-1.67-2.64-.68s-1.67,5.7-1.67,5.7Z" transform="translate(-129.57 -388.35)"/><path class="cls-9" d="M350.08,542.63c.83,1.1,1.36,4.07,4.63,5.09s5.25.61,4.49,1.5-3.34,1.8-5.4,2a14.62,14.62,0,0,1-6.74-1.43c-.79-.61-2.46-2.74-.94-4S350.08,542.63,350.08,542.63Z" transform="translate(-129.57 -388.35)"/><path class="cls-9" d="M353.12,540.84c2.28.61,4.18,1.07,4.48.38s-2.35-2.28-2.5-3.57,1.39-1.29,3.28,0,4.09,2.74,4.78,3.19,1.52,2.63,1.59,2.69-2.82,2.41-2.82,2.71-3.36.38-4.79-.3-4.29-2.51-4.42-3.31A3.44,3.44,0,0,1,353.12,540.84Z" transform="translate(-129.57 -388.35)"/><path class="cls-9" d="M359.36,531.8c1.59.9,4.71,3.11,7.14,2.88a10.68,10.68,0,0,0,4.89-1.43c1.2-.7,3.25-1.91.44-2.37s-4.79,1-7.08-1.5-2.66-4-3.72-3.9-4,1.67-3.89,2.13S359.36,531.8,359.36,531.8Z" transform="translate(-129.57 -388.35)"/><path class="cls-9" d="M366.43,520.31c4.33,1.6,7,3.41,9.35,3.07s4.26-.64,2.59-1.51-4.57-1-5.63-3.54-1.68-3.34-2-3.34a10.9,10.9,0,0,0-3.5,2.2A10.58,10.58,0,0,0,366.43,520.31Z" transform="translate(-129.57 -388.35)"/><path class="cls-9" d="M377.53,513.16c4.33,2.21,8.14,5.1,9.12,5.32s2.44,1.07,0,1.83-3.74,1.6-6,.76-5.53-2.05-5.56-2.66-.18-3.5.36-4a6.18,6.18,0,0,1,2-.76Z" transform="translate(-129.57 -388.35)"/><path class="cls-9" d="M384.91,510.27a22.85,22.85,0,0,0,7,4.72c1.9.91,3.35.69,1.75,1.52s-2.93,1.3-5.8,0a22,22,0,0,1-6.31-4.34c-.59-.76-1.85-2.51,0-2.2A23.38,23.38,0,0,0,384.91,510.27Z" transform="translate(-129.57 -388.35)"/><path class="cls-9" d="M391.14,512.32c8.29,2.36,10.42,2.74,10.72,2.67s0-1.22-2-2.36-4.39-2.28-4.55-2.7a6.62,6.62,0,0,0-4.2-1.48c-1.52.15-4.49-.92-4.07.22s.5,1.37,1.26,1.83S391.14,512.32,391.14,512.32Z" transform="translate(-129.57 -388.35)"/><path class="cls-9" d="M400.19,580c.57.8,18.6,18.21,20.42,18.69s4.46.2,0-3.83-18.37-16-18.48-17.14-1.39-5,1.47-3,7.54,5.78,8.8,6.88a92.33,92.33,0,0,1,8.21,8.41c1.6,2.16,4.79,6.85,6,8.84s2.17,3.18.46,4.52-.8,3.74-3.08,1.92S413,597,412.62,596.13s9,9.9,9,9.9l-.23,4.13s-7.08-4.67-8.1-6-4.22-4.21-4.11-5.19-2.1-3.19-2.87-4-9.33-10.64-9.68-11.78.23-3.14.86-3.22A20.66,20.66,0,0,1,400.19,580Z" transform="translate(-129.57 -388.35)"/><path class="cls-9" d="M344.56,578.7c.88-3.79.64-5.13,2-4.38A3.33,3.33,0,0,1,348,577.5c-.15.45-1,2.13-2,2.4s-3.06.87-2.86.56S344.56,578.7,344.56,578.7Z" transform="translate(-129.57 -388.35)"/><path class="cls-9" d="M352,576.81c-.08-1.22-1.6-5.71-2.66-6.24s.38-1.39,2.35.67,4.73,4.61,4.92,4.82-2.56,2.36-3.24,2.2S352,576.81,352,576.81Z" transform="translate(-129.57 -388.35)"/><path class="cls-9" d="M335.15,573c.14.11,3.44,2.85,4.93,3.25s2.9-.57,2.16-1.63a24.84,24.84,0,0,0-4.16-4.08,11.72,11.72,0,0,0-2.93-1.42C335.11,569.09,335.15,573,335.15,573Z" transform="translate(-129.57 -388.35)"/><path class="cls-9" d="M365.59,564.12c-.46,1.51-.19,5.77-1.58,6.76s-4.05,3.53-1.23,2.52,5.91-3.14,6.45-4,1.44-2.27,0-3.64a14.32,14.32,0,0,0-3.46-2.28Z" transform="translate(-129.57 -388.35)"/><path class="cls-9" d="M308.06,584.47c1.1.36,11.48-4.4,13.54-5.27s2.28,5.61,2.62,7,1.48,3.73-2.62,3.9-6.39.14-10-1.45S308.06,584.47,308.06,584.47Z" transform="translate(-129.57 -388.35)"/><path class="cls-9" d="M313.5,594.47c1.25.06,7.93.3,9.12.43s3,0,4.17.83,1.08,1.71-.29,2.34a22.27,22.27,0,0,1-6.73,2.16c-3.08.4-5.25-.22-5.36-.85s.17-1.83-.91-1.86-3.77-.37-4.62-.37,1.2-1,1.2-1Z" transform="translate(-129.57 -388.35)"/><path class="cls-9" d="M311.44,574.32c1.53-.17,4.26-1.66,6.39-1.56s6.24-1,6.31.59.16,2.85-1,3.39-7.23,2.42-8.9,2.46-5.26-1.86-6.2-2.46S311.44,574.32,311.44,574.32Z" transform="translate(-129.57 -388.35)"/><path class="cls-9" d="M311.52,567.31c.69-.23,5.55-5.18,7.68-7.53s4.26-4.49,4-7.61-.1-6.54-3-7.45-7.33-.53-10.82.91-9.21,3.48-10.46,5-2.85,4.15-1.71,4.69a6.06,6.06,0,0,0,4-.23c.91-.38,4.18-1.6,4-.53s-2,2.95-2,2.95-2.66,2-2.89,2.29-2.28,1.28-1.14,3,1,5.4,5.1,5.73,5.86.35,6.54-.23S311.52,567.31,311.52,567.31Z" transform="translate(-129.57 -388.35)"/><path class="cls-9" d="M315.09,539.09c6.24-.45,7.08-.76,8.52-1.75s3.88-1.29,1.29-3.8-3.19-6-5.17-6.24-3.11-1.67-4.64-.37-8.15,6-4.67,6.4,7.87-.06,7,1.37-1.14,2.23-3,2.85-1.54,2.68-.68,2.63S315.09,539.09,315.09,539.09Z" transform="translate(-129.57 -388.35)"/><path class="cls-9" d="M251.1,530.09c.46-.12,4.56-1.49,4.34-2.29s-8.44-6.16-10.61-8.1-10-12.2-10.84-13.12,1.14-1.14,3.31.8,1.94,5,3.19,5,.57-3,.46-3.65-2.4-4.22-4.79-6.73-6.27-6.78-7.53-7.55-2,3.71-2,4.15,2,1.92,2,4.54-.34,3.65,1.71,6,4.56,8.21,6.73,10.38,5.82,5.63,7.87,6.8S251.1,530.09,251.1,530.09Z" transform="translate(-129.57 -388.35)"/><path class="cls-9" d="M244.14,510.23c1.49,1.83,7.76,9.81,9.81,10.95s6.28,1.37,4.45,0-6.39-6.27-6.9-7.41.29-2.79,2.23-.6,6.38,4.82,6.38,4.82,2.4-2,0-2.93-8.67-6.2-10.15-7.22-4.22-3.08-6.61-4.56-4.57-3.2-4.23-1.6a19.26,19.26,0,0,0,3.08,5.7A20.85,20.85,0,0,1,244.14,510.23Z" transform="translate(-129.57 -388.35)"/><path class="cls-9" d="M211.63,476.93c.69.34,9.36,5.7,11.53,6.84s5.93,3.49,9.46,5.51,12.21,9,14.49,11.26,3.65,5.7,4.45,6.16a66.52,66.52,0,0,1-6.28-3.2c-1.82-1.14-6.5-3.72-8.78-4.88a39.85,39.85,0,0,1-6.73-4.24c-2.51-1.94-3.76-4.34-5.82-5.93s-2.85-2.51-5.13-4.11-5.93-3.54-7.19-4.79-3.65-3.2-3.65-3.88,2.29-.34,2.86,0A2.29,2.29,0,0,1,211.63,476.93Z" transform="translate(-129.57 -388.35)"/><path class="cls-9" d="M241,489.59c.09.38,7.09,3.8,10.21,6.92s7.37,6.61,7.9,7.37.69,2.44-1.52,1.75-3.8-2.12-7.83-4.59-12.93-11.76-13.53-12.59S241,489.59,241,489.59Z" transform="translate(-129.57 -388.35)"/><path class="cls-9" d="M249.54,492.17c2.06,1.68,7.23,7.91,10.57,10.12s5.94,2,4.87.68-6-4-4.18-4,5.17,1.61,6,2.1,1.67-1.66-1.22-3-6.67-4.52-10.14-5.89A7.23,7.23,0,0,0,249.54,492.17Z" transform="translate(-129.57 -388.35)"/><path class="cls-9" d="M241.86,481c-.53-1.44.61-2.35,2.21-1.21s2.89,1.82,6.46,4.64,3.73,5.24,8.52,7.6,11.48,5.78,9.73,4-6.61-5.86-7.3-6.69-.07-1.06,4,.92,7.68,3.72,6.84,2.12-.38-2.81-4.33-5.24-4.34-3.35-10-6-15.67-6.46-20.46-8.52-8.67-3.95-12.7-5.7-13.76-5.25-16-5.4-5.25-.46-3.2,1.22,6.54,2.13,7.84,4.41,1.36,3.42,2.81,4.71,1.52,3.8,5.93,5.4,3.58,1.22,7.72,4.26,6.65,5.48,9.77,6.16,7.45,1.52,7.45-.08-.07-2.28-2.28-3.87A12,12,0,0,1,241.86,481Z" transform="translate(-129.57 -388.35)"/><path class="cls-9" d="M134.64,469.21s1.67-4.64,4-6.32,4.79-4.79,9.28-4.48,8.74,1.06,11.25-.61,3.88-3.12,5.94-3.35,6,1.52,9.88,3.43,10,3.65,10.12,4.41-3.65,1.52-5.63,1.75-3-.16-7-.54-13.91-1-15.66-.68-8.82.61-11.64,1.67a70.28,70.28,0,0,0-7.68,3.58A12.75,12.75,0,0,1,134.64,469.21Z" transform="translate(-129.57 -388.35)"/><path class="cls-9" d="M145.59,467.57c4.9-.68,10.27-.23,14.26-.23s13.11,2.74,15.74,3.88,5.36,2.44,7.18,3.27,7.31,1.86,8.79,2.89a53.91,53.91,0,0,1,6.79,5.25c2.05,2.05,13.46,12.44,15.34,13.86s10,9.52,11.35,10.78,3.48-.52,1.54-2.74S214.77,493,213.17,491,198,476.35,193.78,474.7s-13.86-5.59-19.1-6.9-11.58-3.14-14.83-3.25S145.59,467.57,145.59,467.57Z" transform="translate(-129.57 -388.35)"/><path class="cls-9" d="M199.58,471.87c-3.5-2.44-5.32-3.27-8.67-5.78s-1.37-4.3,3.27-1.54S203,470.12,200,467s-15.44-8.82-20.38-10-11.79-2.32-6.16-2.61,10-.93,12.09,0,11.71,5.27,16.05,8.08,10,5.94,10.72,7-2.81,2.13-5.25,2.36S199.58,471.87,199.58,471.87Z" transform="translate(-129.57 -388.35)"/><path class="cls-9" d="M223.44,496.49c-.46-1,.4-4.85-2-7.13S209.7,478.12,207.53,477s-7.53-3.92-9.18-5-7-2.92-10.39-3.77-5.58.34-2.39,1.88,4.56.86,8.5,3.77,8.1,5.07,10.26,7.24,11.41,13.46,14.55,15,4,.61,4.28.4Z" transform="translate(-129.57 -388.35)"/><path class="cls-9" d="M296.65,547s2.78-6.8,3.39-8,9.73-15.74,11.48-16.73,5.4,2.18,6.49,3.27-4.61,2.75-5.56,3.57-7.07,6.66-7.17,8.14-1.69,5.24-4.6,7.72-4.37,2.05-4.37,2.05Z" transform="translate(-129.57 -388.35)"/></svg>